<?xml version="1.0" standalone="no"?>
<!DOCTYPE svg PUBLIC "-//W3C//DTD SVG 20010904//EN" "http://www.w3.org/TR/2001/REC-SVG-20010904/DTD/svg10.dtd">
<svg version="1.0" xmlns="http://www.w3.org/2000/svg" width="400.000000pt" height="100.000000pt"
    viewBox="0 0 400.000000 100.000000" preserveAspectRatio="xMidYMid meet">
    <g transform="translate(0.000000,100.000000) scale(0.100000,-0.100000)" fill="#000000" stroke="none">
        <path d="M3163 910 c62 -68 181 -232 201 -277 l19 -42 -70 -108 c-77 -120
-133 -216 -133 -229 0 -4 7 1 15 12 19 26 19 10 -1 -29 -17 -33 -54 -84 -54
-74 0 3 13 99 30 213 23 163 27 210 17 216 -20 12 -92 9 -111 -5 -18 -13 -18
-18 3 -138 12 -68 26 -146 32 -172 5 -26 9 -53 9 -59 0 -30 -11 11 -45 162
-20 91 -43 176 -52 189 -30 47 -32 4 -3 -114 15 -66 36 -159 45 -206 10 -48
20 -91 24 -96 3 -6 52 -13 108 -17 l102 -6 70 137 c38 76 80 149 92 162 l22
23 17 -22 c9 -12 43 -75 75 -140 l58 -118 81 5 c99 6 106 8 106 30 0 10 -47
89 -105 176 -58 87 -108 170 -111 184 -9 36 12 73 105 188 45 55 81 106 81
114 0 11 -13 13 -71 7 -93 -8 -120 -24 -169 -96 -22 -33 -43 -60 -45 -60 -3 0
-14 19 -26 41 -48 96 -163 165 -303 184 l-50 7 37 -42z m185 -148 c44 -57 19
-43 -30 16 -98 121 -108 135 -53 77 32 -33 69 -75 83 -93z m127 -85 c38 -22
40 -25 43 -77 1 -30 9 -69 17 -87 8 -17 15 -44 15 -60 0 -26 -3 -24 -35 27
-19 30 -35 50 -35 43 0 -14 -58 -73 -71 -73 -14 0 -10 31 10 77 14 30 16 43 8
46 -9 3 -7 13 5 34 17 29 17 31 -2 48 -22 20 -26 45 -7 45 6 0 30 -10 52 -23z" />
        <path d="M435 841 c-46 -20 -102 -79 -111 -116 -3 -14 -3 -46 1 -71 9 -65 65
-123 163 -170 118 -55 135 -79 88 -123 -71 -67 -216 -26 -216 60 0 37 -9 37
-48 -4 -58 -60 -61 -119 -10 -181 46 -56 100 -80 183 -80 79 -1 111 12 188 76
44 37 47 38 47 16 0 -65 87 -129 199 -147 77 -13 140 -5 207 24 l51 22 -8 67
c-5 36 -13 75 -19 86 -10 19 -13 19 -40 5 -44 -23 -152 -20 -181 5 l-24 19 75
1 c98 1 170 14 181 31 13 21 11 106 -5 142 -7 18 -30 47 -50 65 -32 28 -44 32
-92 32 -30 0 -71 -7 -91 -15 -106 -45 -32 26 174 166 169 114 180 131 62 90
-134 -46 -319 -156 -390 -233 l-47 -49 -78 40 c-91 47 -106 58 -123 89 -16 30
3 37 77 27 88 -11 99 -9 126 21 31 36 51 72 44 79 -3 3 -30 14 -61 25 -76 27
-215 27 -272 1z m484 -178 c-64 -67 -121 -137 -139 -173 -12 -23 -10 -23 21 6
50 47 68 53 103 41 17 -5 33 -11 35 -13 2 -2 -15 -24 -38 -50 -29 -33 -38 -50
-30 -55 7 -4 48 -10 91 -14 l78 -7 -37 -20 c-21 -10 -62 -22 -90 -25 -56 -6
-66 -19 -35 -46 50 -46 160 -61 229 -32 20 8 38 13 40 11 7 -6 -36 -28 -81
-41 -52 -16 -59 -35 -12 -35 42 0 56 -15 21 -24 -15 -4 -30 -18 -35 -32 -10
-25 -13 -26 -63 -19 -71 9 -155 50 -163 79 -3 13 -12 23 -21 22 -8 0 -24 10
-34 24 -17 23 -18 31 -7 81 15 72 -4 157 -39 175 -24 11 -21 24 7 24 9 0 48
27 86 60 65 57 151 120 163 120 3 0 -20 -26 -50 -57z m-438 -45 c37 -38 58
-74 37 -63 -7 5 -24 17 -37 29 -17 15 -25 17 -28 8 -8 -21 -23 -2 -23 29 0 37
15 37 51 -3z m155 -103 c16 -8 38 -15 50 -15 32 0 44 -20 44 -77 0 -88 -58
-173 -116 -173 -13 0 -24 -4 -24 -10 0 -5 -14 -17 -31 -25 -32 -17 -118 -17
-122 0 -2 9 23 14 85 16 41 1 158 149 118 149 -7 0 -7 7 1 21 9 18 7 26 -10
48 -11 14 -28 38 -36 54 -18 32 -5 36 41 12z m408 -48 c16 -25 -7 -37 -71 -37
-62 0 -72 11 -36 40 33 25 90 24 107 -3z m73 -43 c2 -7 -3 -19 -12 -28 -9 -9
-13 -21 -9 -28 5 -8 2 -9 -10 -5 -10 4 -20 7 -22 7 -8 0 -4 32 7 51 11 21 40
22 46 3z" />
        <path d="M1930 720 l0 -50 70 0 70 0 0 50 0 50 -70 0 -70 0 0 -50z" />
        <path d="M2256 665 c-115 -41 -191 -204 -151 -327 32 -101 119 -162 231 -161
68 1 106 16 164 70 l40 35 38 -31 c53 -41 82 -51 156 -51 86 0 162 38 194 97
15 28 21 50 16 67 -8 32 -17 32 -78 1 -81 -41 -179 -29 -192 22 -4 13 -3 27 1
31 3 4 71 8 151 10 l144 4 0 46 c0 138 -131 230 -270 189 -30 -9 -72 -30 -92
-47 -45 -38 -98 -140 -98 -191 0 -48 -8 -69 -27 -69 -8 0 -37 -7 -64 -16 -70
-23 -126 -14 -161 26 -24 25 -28 39 -28 86 0 50 3 59 34 90 28 28 41 34 78 34
25 0 71 -9 103 -20 44 -15 61 -17 72 -9 32 28 3 92 -53 115 -42 18 -157 17
-208 -1z m555 -104 l23 -18 -23 -8 c-28 -8 -111 3 -111 15 0 31 77 39 111 11z
m89 -42 c0 -6 -7 -9 -15 -5 -8 3 -15 1 -15 -5 0 -6 9 -13 20 -16 23 -6 25 -16
7 -31 -18 -15 -57 30 -45 52 10 18 48 22 48 5z m-223 -11 c24 -31 23 -48 -5
-54 -15 -4 -30 -11 -33 -16 -7 -10 -39 0 -39 12 0 5 10 11 23 13 l22 4 -23 8
c-22 7 -22 9 -6 26 20 22 47 25 61 7z m-51 -138 c9 -22 25 -47 36 -54 26 -19
15 -36 -23 -36 -36 0 -89 47 -89 79 0 23 25 51 46 51 8 0 21 -18 30 -40z" />
        <path d="M1802 653 c-17 -7 -91 -153 -77 -153 2 0 16 20 31 45 14 25 28 44 31
42 2 -3 -8 -33 -22 -68 -19 -45 -25 -73 -21 -97 6 -37 -13 -94 -36 -108 -7 -5
-19 -27 -27 -49 -13 -39 -26 -55 -45 -55 -5 0 -3 7 4 15 16 19 1 19 -27 0 -22
-16 -22 -16 -8 19 11 26 12 47 5 92 -12 70 -13 201 -2 207 4 3 17 -3 29 -13
20 -15 23 -29 25 -111 3 -82 5 -91 15 -68 6 15 17 79 22 142 6 64 14 123 17
131 5 14 -7 16 -90 16 l-96 0 0 -77 c1 -142 19 -357 35 -410 9 -29 25 -59 38
-68 32 -22 72 -19 89 7 28 43 228 498 228 518 0 12 -9 24 -22 29 -36 13 -82
20 -96 14z" />
        <path d="M1292 640 c-40 -5 -76 -11 -80 -15 -8 -8 -6 -529 3 -562 6 -26 22
-28 78 -12 52 14 62 41 80 228 17 170 25 190 90 226 39 21 44 29 49 85 5 55
-24 51 -82 -10 -120 -128 -118 -126 -130 -192 -7 -34 -14 -67 -17 -71 -7 -12
-43 90 -43 120 0 13 5 22 13 20 7 -1 14 14 17 43 4 40 8 45 35 51 53 11 85 28
85 43 0 9 9 20 20 26 11 6 18 15 15 21 -7 10 -26 10 -133 -1z" />
        <path d="M1956 598 c-3 -13 -6 -123 -6 -245 l0 -223 54 0 53 0 7 38 c10 63 7
412 -4 433 -8 14 -21 19 -54 19 -37 0 -45 -4 -50 -22z" />
    </g>
</svg>